<svg width="190" height="60" viewBox="0 0 1840 574" fill="none" xmlns="http://www.w3.org/2000/svg">
<path fill-rule="evenodd" clip-rule="evenodd" d="M281.723 246.801C280.136 244.145 277.169 239.212 275.789 237.487C275.824 237.97 275.824 235.417 275.824 238.936C275.824 242.454 274.513 250.838 266.613 256.047L223.145 282.68L134.104 337.256L110.507 351.746C99.8471 357.3 93.0164 364.51 89.9461 367.58C88.8766 368.65 87.8417 369.719 86.8412 370.823C82.7359 375.343 79.0445 380.276 75.8707 385.52C73.6973 389.108 71.7309 392.868 70.0059 396.766C64.9002 408.461 62.0713 421.364 62.0713 434.922C62.0713 457.449 69.9024 478.183 83.0119 494.5C86.9102 499.365 91.2915 503.85 96.0523 507.851L98.0532 509.473V509.507L98.6742 509.99L98.0532 509.507L176.399 573.64L152.457 540.901C150.249 538.348 148.249 535.623 146.489 532.759C145.799 531.621 145.144 530.482 144.523 529.344C139.52 520.098 136.692 509.507 136.692 498.261C136.692 471.835 149.628 454.379 170.742 440.717C177.227 436.715 244.396 395.973 244.051 395.283C274.858 374.963 295.143 340.051 295.143 300.412C295.143 281.024 290.279 262.774 281.723 246.801Z" fill="url(#paint0_linear_1345_19277)"/>
<path fill-rule="evenodd" clip-rule="evenodd" d="M97.8117 283.957L127.894 265.5L204.757 218.41L234.288 200.298C234.253 200.264 234.184 200.229 234.115 200.195C234.874 199.815 235.633 199.401 236.392 198.987L248.846 191.398C280.55 169.25 301.318 132.474 301.318 90.869C301.318 72.7573 297.385 55.5426 290.313 40.0527C283.345 24.7699 273.271 11.143 260.955 0C262.714 5.96824 263.646 12.2815 263.646 18.8362C263.646 42.9851 250.882 64.1672 231.735 75.9657C231.631 76.0347 231.528 76.1037 231.39 76.1727L82.9429 167.145L54.9991 184.291L52.2737 185.947C20.9836 205.749 0.25 240.627 0.25 280.369C0.25 288.062 1.00897 295.583 2.4924 302.828C4.8383 314.281 8.94362 325.114 14.4979 335.015C19.1207 343.26 24.7784 350.85 31.2986 357.646C33.403 359.819 35.6109 361.958 37.8878 363.959C36.5769 359.509 35.8869 354.782 35.8869 349.918C35.8869 331.91 45.374 316.144 59.6564 307.313C59.7599 307.278 59.8289 307.209 59.9324 307.175L68.3155 302.034L97.8117 283.957Z" fill="url(#paint1_linear_1345_19277)"/>
<path fill-rule="evenodd" clip-rule="evenodd" d="M215.762 239.351L127.894 265.501L97.8115 283.958C85.1161 291.72 72.4896 299.517 59.9322 307.175L59.6562 307.313C45.3738 316.145 35.8867 331.911 35.8867 349.919C35.8867 354.783 36.5767 359.51 37.8876 363.96C46.4433 370.825 57.2758 374.896 69.0743 374.896C74.111 374.896 83.0461 373.447 87.186 371.515C95.6726 359.061 120.718 345.952 134.345 337.569L223.489 282.957L237.875 274.16L265.233 257.394L268.096 255.635C272.995 252.012 276.169 246.182 276.169 239.627C276.169 239.144 276.169 238.661 276.134 238.178C271.304 232.314 263.991 228.588 255.815 228.588C253.331 228.588 250.916 228.933 248.639 229.588L247.914 229.795L237.703 232.831L215.762 239.351Z" fill="url(#paint2_linear_1345_19277)"/>
<path d="M1795.86 405.554C1795.86 401.836 1795.86 398.119 1795.86 394.401C1783.25 406.495 1765.47 412.563 1742.44 412.563C1717.4 412.563 1696.8 403.46 1680.43 385.255C1664.11 367.05 1655.99 345.042 1655.99 319.187C1655.99 293.461 1664.11 271.495 1680.43 253.29C1696.8 235.042 1717.4 225.983 1742.44 225.983C1765.47 225.983 1783.25 232.051 1795.86 244.102C1795.86 216.068 1795.86 188.034 1795.86 160C1845.47 160 1839.75 198.077 1839.75 198.077C1839.75 267.222 1839.75 336.367 1839.75 405.554C1825.09 405.554 1810.47 405.554 1795.86 405.554ZM1797.06 319.743C1797.06 305.427 1792.4 293.29 1783.04 283.247C1773.68 273.162 1762.35 268.119 1749.11 268.119C1735.82 268.119 1724.49 273.162 1715.05 283.247C1705.65 293.29 1700.99 305.427 1700.99 319.743C1700.99 333.931 1705.65 346.025 1715.05 356.025C1724.49 366.067 1735.82 371.067 1749.11 371.067C1762.35 371.067 1773.68 366.067 1783.04 356.025C1792.4 346.025 1797.06 333.931 1797.06 319.743Z" fill="#FEFEFE"/>
<path d="M1278.38 405.554C1278.38 401.836 1278.38 398.118 1278.38 394.4C1265.82 406.494 1248 412.563 1224.97 412.563C1199.97 412.563 1179.32 403.46 1163 385.255C1146.68 367.05 1138.56 345.042 1138.56 319.187C1138.56 293.461 1146.68 271.495 1163 253.29C1179.32 235.042 1199.97 225.982 1224.97 225.982C1248 225.982 1265.82 232.051 1278.38 244.102C1278.38 239.871 1278.38 235.64 1278.38 231.41C1330.52 231.41 1322.32 274.743 1322.32 274.743C1322.32 318.332 1322.32 361.922 1322.32 405.554C1307.66 405.554 1293.04 405.554 1278.38 405.554ZM1278.26 319.743C1278.26 305.426 1273.6 293.29 1264.2 283.247C1254.88 273.162 1243.6 268.119 1230.31 268.119C1216.97 268.119 1205.65 273.162 1196.25 283.247C1186.89 293.29 1182.19 305.426 1182.19 319.743C1182.19 333.931 1186.89 346.025 1196.25 356.025C1205.65 366.067 1216.97 371.067 1230.31 371.067C1243.6 371.067 1254.88 366.067 1264.2 356.025C1273.6 346.025 1278.26 333.931 1278.26 319.743Z" fill="#FEFEFE"/>
<path d="M687.531 198.419C687.531 213.718 687.531 228.974 687.531 244.273C700.095 232.136 716.505 226.111 736.89 226.111C761.89 226.111 783.214 235.213 800.778 253.376C818.513 271.581 827.402 293.589 827.402 319.315C827.402 345.17 818.513 367.136 800.778 385.341C783.214 403.589 761.89 412.691 736.89 412.691C724.112 412.691 713.001 411.238 703.429 408.204C693.899 405.255 685.736 401.452 678.856 396.836C671.976 392.221 666.292 387.349 661.719 382.221C657.147 377.05 653.514 372.136 650.907 367.52C641.634 351.409 643.642 345.897 643.642 328.033C643.642 272.008 643.642 215.983 643.642 160C693.429 160 687.531 198.419 687.531 198.419ZM783.428 319.743C783.428 305.427 778.77 293.29 769.454 283.247C760.095 273.162 748.77 268.119 735.48 268.119C722.232 268.119 710.864 273.162 701.505 283.247C692.104 293.29 687.403 305.427 687.403 319.743C687.403 333.931 692.104 346.025 701.505 356.025C710.864 366.067 722.232 371.067 735.48 371.067C748.77 371.067 760.095 366.067 769.454 356.025C778.77 346.025 783.428 333.931 783.428 319.743Z" fill="#FEFEFE"/>
<path d="M572.619 405.554C572.619 401.836 572.619 398.118 572.619 394.4C560.055 406.494 542.235 412.563 519.201 412.563C494.201 412.563 473.56 403.46 457.235 385.255C440.911 367.05 432.791 345.042 432.791 319.187C432.791 293.461 440.911 271.495 457.235 253.29C473.56 235.042 494.201 225.982 519.201 225.982C542.235 225.982 560.055 232.051 572.619 244.102C572.619 239.871 572.619 235.64 572.619 231.41C624.884 231.41 616.551 275.085 616.551 275.085C616.551 289.914 616.551 304.785 616.551 319.614C616.551 348.247 616.551 376.879 616.551 405.554C601.893 405.554 587.277 405.554 572.619 405.554ZM572.491 319.743C572.491 305.426 567.833 293.29 558.431 283.247C549.115 273.162 537.833 268.119 524.543 268.119C511.209 268.119 499.885 273.162 490.483 283.247C481.124 293.29 476.423 305.426 476.423 319.743C476.423 333.931 481.124 346.025 490.483 356.025C499.885 366.067 511.209 371.067 524.543 371.067C537.833 371.067 549.115 366.067 558.431 356.025C567.833 346.025 572.491 333.931 572.491 319.743Z" fill="#FEFEFE"/>
<path d="M1640.14 191.795C1640.14 198.932 1637.61 205.001 1632.66 209.958C1627.66 215 1621.63 217.436 1614.49 217.436C1607.44 217.436 1601.38 215 1596.38 209.958C1591.38 205.001 1588.9 198.932 1588.9 191.795C1588.9 184.744 1591.38 178.676 1596.38 173.719C1601.38 168.676 1607.44 166.197 1614.49 166.197C1621.63 166.197 1627.66 168.676 1632.66 173.719C1637.61 178.676 1640.14 184.744 1640.14 191.795Z" fill="#FEFEFE"/>
<path d="M1636.89 404.701C1621.97 404.701 1607.06 404.701 1592.14 404.701V232.053C1598.81 235.813 1606.25 237.694 1614.49 237.694C1622.74 237.694 1630.22 235.813 1636.89 232.053V404.701Z" fill="#FEFEFE"/>
<path d="M1508.68 273.889C1519.32 273.889 1528.38 277.735 1535.86 285.47C1543.42 293.119 1547.23 302.436 1547.23 313.504C1547.23 324.359 1543.42 333.632 1535.86 341.324C1528.38 348.974 1519.32 352.863 1508.68 352.863C1498 352.863 1488.89 348.974 1481.33 341.324C1473.72 333.632 1470.05 324.359 1470.05 313.504C1470.05 302.436 1473.72 293.119 1481.33 285.47C1488.89 277.735 1498 273.889 1508.68 273.889Z" fill="#FDD100"/>
<path d="M1354.2 230.213C1354.2 224.145 1354.62 217.82 1355.43 211.282C1356.33 204.701 1358.26 198.419 1361.2 192.308C1364.2 186.196 1368.85 180.769 1375.09 175.897C1381.37 171.068 1389.84 167.222 1400.43 164.316C1411.08 161.41 1424.54 160 1440.9 160C1440.86 173.547 1440.82 187.094 1440.78 200.641C1436.72 200.641 1432.27 200.897 1427.49 201.41C1422.7 201.966 1418.17 203.248 1413.94 205.128C1409.71 207.008 1406.16 209.957 1403.47 213.931C1400.69 217.906 1399.28 223.29 1399.28 230.213C1399.28 230.598 1399.28 230.983 1399.28 231.41C1440.35 231.41 1431.59 267.435 1431.59 267.435C1420.82 267.435 1410.05 267.435 1399.28 267.435C1399.28 313.204 1399.28 358.931 1399.28 404.7C1384.24 404.7 1369.24 404.7 1354.2 404.7C1354.2 358.931 1354.2 313.204 1354.2 267.435C1347.61 267.435 1340.99 267.435 1334.41 267.435C1334.41 255.427 1334.41 243.418 1334.41 231.41C1340.99 231.41 1347.61 231.41 1354.2 231.41C1354.2 230.983 1354.2 230.598 1354.2 230.213Z" fill="#FEFEFE"/>
<path d="M1124.32 228.205C1127.7 228.205 1130.86 228.461 1133.94 228.889C1133.94 242.991 1133.94 257.094 1133.94 271.196C1100.18 268.419 1067.62 310.94 1067.62 335.256C1067.62 364.486 1067.62 375.469 1067.62 404.7C1052.74 404.7 1037.87 404.7 1023.04 404.7C1023.04 346.922 1023.04 288.803 1023.04 231.026C1060.01 230.684 1067.96 259.017 1067.62 264.487C1073.17 245.384 1103.34 228.205 1124.32 228.205Z" fill="#FEFEFE"/>
<path d="M952.444 231.41C970.307 231.41 988.213 231.41 1006.08 231.41C984.025 255.897 961.931 280.341 939.88 304.828C961.931 338.119 984.025 371.409 1006.08 404.7C988.213 404.7 970.307 404.7 952.444 404.7C931.974 373.845 911.546 342.991 891.076 312.136C891.076 342.991 891.076 373.845 891.076 404.7C876.205 404.7 861.333 404.7 846.504 404.7C846.504 323.119 846.504 241.538 846.504 160C896.546 160 891.076 198.077 891.076 198.077C891.076 231.837 891.076 265.641 891.076 299.444C911.546 276.752 931.974 254.059 952.444 231.41Z" fill="#FEFEFE"/>
<path d="M413.687 404.7C398.816 404.7 383.944 404.7 369.072 404.7C369.072 323.119 369.072 241.538 369.072 160C419.243 160 413.687 198.248 413.687 198.248C413.687 267.051 413.687 335.897 413.687 404.7Z" fill="#FEFEFE"/>
<defs>
<linearGradient id="paint0_linear_1345_19277" x1="44.524" y1="512.683" x2="350.594" y2="268.212" gradientUnits="userSpaceOnUse">
<stop stop-color="#FACD00"/>
<stop offset="1" stop-color="#F0BF00"/>
</linearGradient>
<linearGradient id="paint1_linear_1345_19277" x1="324.928" y1="11.5498" x2="-34.3994" y2="357.402" gradientUnits="userSpaceOnUse">
<stop stop-color="#D99C00"/>
<stop offset="1" stop-color="#EDBA00"/>
</linearGradient>
<linearGradient id="paint2_linear_1345_19277" x1="290.92" y1="207.897" x2="-6.16691" y2="397.185" gradientUnits="userSpaceOnUse">
<stop stop-color="#C19617"/>
<stop offset="1" stop-color="#A68527"/>
</linearGradient>
</defs>
</svg>
